<?xml version="1.0" encoding="UTF-8"?>
<svg version="1.1" xmlns="http://www.w3.org/2000/svg" width="160" height="160">
<path d="M0 0 C1.63569946 0.01353516 1.63569946 0.01353516 3.30444336 0.02734375 C21.91848464 0.42382655 39.86056057 6.73930811 53.75 19.4375 C55.08804688 20.63826172 55.08804688 20.63826172 56.453125 21.86328125 C70.56209184 35.18199175 80.33937857 53.88960201 81.18359375 73.515625 C81.20728271 75.57278069 81.20811215 77.63031118 81.1875 79.6875 C81.17847656 80.77796631 81.16945312 81.86843262 81.16015625 82.99194336 C80.76367345 101.60598464 74.44819189 119.54806057 61.75 133.4375 C60.94949219 134.32953125 60.14898437 135.2215625 59.32421875 136.140625 C46.00550825 150.24959184 27.29789799 160.02687857 7.671875 160.87109375 C5.61471931 160.89478271 3.55718882 160.89561215 1.5 160.875 C0.40953369 160.86597656 -0.68093262 160.85695312 -1.80444336 160.84765625 C-20.41848464 160.45117345 -38.36056057 154.13569189 -52.25 141.4375 C-53.14203125 140.63699219 -54.0340625 139.83648437 -54.953125 139.01171875 C-69.06209184 125.69300825 -78.83937857 106.98539799 -79.68359375 87.359375 C-79.70728271 85.30221931 -79.70811215 83.24468882 -79.6875 81.1875 C-79.67847656 80.09703369 -79.66945313 79.00656738 -79.66015625 77.88305664 C-79.26367345 59.26901536 -72.94819189 41.32693943 -60.25 27.4375 C-59.44949219 26.54546875 -58.64898437 25.6534375 -57.82421875 24.734375 C-42.65295243 8.66293224 -22.09376227 -0.22136999 0 0 Z " fill="#FE6701" transform="translate(79.25,-0.4375)"/>
<path d="M0 0 C11.13483036 6.98962093 19.46834458 17.19306565 23.3125 29.8125 C25.00992725 37.7661591 24.8393067 46.36936325 22 54 C20.845 53.67 19.69 53.34 18.5 53 C11.82565216 51.34607549 5.66854534 51.90232568 -1.01953125 53.07421875 C-3 53 -3 53 -4.73828125 51.97265625 C-6.65596121 48.97442597 -6.3399295 46.2710785 -6.375 42.75 C-6.61969534 36.30173919 -7.24049938 32.55256581 -12 28 C-17.17833084 24.97116498 -21.16428565 24.44421768 -27 25 C-30.26750881 26.34126843 -30.26750881 26.34126843 -33 28 C-33.99 28.33 -34.98 28.66 -36 29 C-37.18391223 31.37625345 -37.18391223 31.37625345 -38 34 C-38.33 34.99 -38.66 35.98 -39 37 C-39.51879747 43.12181014 -38.89165519 48.04698431 -35 53 C-30.4223342 56.7733907 -27.18310895 57.47487897 -21.3125 57.5625 C-14.47581845 57.67745904 -14.47581845 57.67745904 -12.0234375 59.33984375 C-10.60960423 61.63327558 -11.17695312 63.28913191 -11.6640625 65.84375 C-12.74395304 72.77514044 -12.34353475 79.40880851 -10 86 C-20.98349248 90.08688092 -32.38698731 88.4816608 -43 84 C-46.20453989 82.22707408 -49.09871624 80.22799006 -52 78 C-52.86625 77.4225 -53.7325 76.845 -54.625 76.25 C-63.61049112 67.73742947 -68.99827702 56.48884508 -69.34350586 44.1965332 C-69.52562522 28.96486062 -65.86434739 18.12289085 -55.125 7.0703125 C-40.46611395 -6.70194738 -17.6668717 -9.88443955 0 0 Z " fill="#FEFCFB" transform="translate(102,38)"/>
<path d="M0 0 C4.18223177 2.40396 7.10934581 4.8359957 8.8125 9.4375 C9.2955915 13.40218197 9.49931128 17.21328042 9.57421875 21.20703125 C9.46542822 24.52587871 9.46542822 24.52587871 11.8125 26.4375 C15.29466602 26.34763765 18.70098905 26.06115109 22.1640625 25.71484375 C27.5143957 25.27212252 31.66180648 25.89579582 36.8125 27.4375 C37.4725 26.1175 38.1325 24.7975 38.8125 23.4375 C38.791875 24.365625 38.77125 25.29375 38.75 26.25 C38.65480396 29.46036011 38.65480396 29.46036011 39.8125 32.4375 C40.8025 32.4375 41.7925 32.4375 42.8125 32.4375 C47.92419153 39.50258793 48.98884382 45.82187073 47.8125 54.4375 C45.76135742 61.23463739 41.35883649 66.10441476 35.3125 69.75 C29.71206952 72.33318532 23.8338575 72.32385554 17.8125 71.4375 C14.51973556 70.12674391 11.68007963 68.51223462 8.8125 66.4375 C8.8125 65.1175 8.8125 63.7975 8.8125 62.4375 C6.3375 62.9325 6.3375 62.9325 3.8125 63.4375 C2.8125 60.4375 2.8125 60.4375 2.8125 56.4375 C2.4825 55.4475 2.1525 54.4575 1.8125 53.4375 C1.53925417 48.39048881 1.55602999 43.35950304 2.4375 38.375 C2.56125 37.405625 2.685 36.43625 2.8125 35.4375 C-0.63286396 31.99213604 -5.70625686 33.07839659 -10.390625 32.9765625 C-16.05879704 32.17182203 -19.09293968 29.88705286 -22.5 25.375 C-25.14880043 20.76412518 -25.85203021 16.6882246 -25.1875 11.4375 C-23.34087674 5.6021705 -20.67175857 2.35465881 -15.1875 -0.5625 C-9.84596265 -2.34301245 -5.11661611 -2.26759123 0 0 Z " fill="#FE6704" transform="translate(87.1875,63.5625)"/>
<path d="M0 0 C0.66 0 1.32 0 2 0 C7.11169153 7.06508793 8.17634382 13.38437073 7 22 C4.94885742 28.79713739 0.54633649 33.66691476 -5.5 37.3125 C-11.10043048 39.89568532 -16.9786425 39.88635554 -23 39 C-26.29276444 37.68924391 -29.13242037 36.07473462 -32 34 C-32 33.34 -32 32.68 -32 32 C-31.05898437 31.55269531 -30.11796875 31.10539062 -29.1484375 30.64453125 C-27.89041125 30.03429463 -26.63261071 29.42359253 -25.375 28.8125 C-24.44880859 28.37454102 -24.44880859 28.37454102 -23.50390625 27.92773438 C-11.85506053 22.22593094 -4.50381108 12.00028611 0 0 Z " fill="#FDFBF9" transform="translate(128,96)"/>
<path d="M0 0 C0.33 1.65 0.66 3.3 1 5 C0.34 5 -0.32 5 -1 5 C-0.67 5.99 -0.34 6.98 0 8 C-2.9719385 6.87548273 -5.33440687 5.77706209 -8 4 C-8 3.34 -8 2.68 -8 2 C-5.09399739 0.74335022 -3.20395416 0 0 0 Z " fill="#FCF0EB" transform="translate(104,126)"/>
<path d="M0 0 C0.66 0 1.32 0 2 0 C2.66 1.32 3.32 2.64 4 4 C3.34 4 2.68 4 2 4 C1.67 4.66 1.34 5.32 1 6 C-0.30915279 7.03145371 -1.64082143 8.03542166 -3 9 C-2.01 6.03 -1.02 3.06 0 0 Z " fill="#FBEBE2" transform="translate(128,96)"/>
<path d="M0 0 C0.33 0.66 0.66 1.32 1 2 C1.66 2.33 2.32 2.66 3 3 C-1.75 7 -1.75 7 -4 7 C-3.43628586 3.73045798 -2.50037734 2.17424117 0 0 Z " fill="#FC6612" transform="translate(53,36)"/>
<path d="M0 0 C2.62386487 3.06117568 3 3.73173127 3 8 C2.01 8.33 1.02 8.66 0 9 C0.33 7.35 0.66 5.7 1 4 C0.34 4 -0.32 4 -1 4 C-0.67 2.68 -0.34 1.36 0 0 Z " fill="#FBEFE6" transform="translate(121,60)"/>
<path d="M0 0 C0.99 0.33 1.98 0.66 3 1 C2.67 1.99 2.34 2.98 2 4 C0.1875 4.5625 0.1875 4.5625 -2 5 C-3.3479743 5.63654342 -4.68596724 6.29605388 -6 7 C-4.61990379 3.66476748 -3.15049348 1.81392049 0 0 Z " fill="#FD6614" transform="translate(70,64)"/>
</svg>
